<?xml version="1.0" encoding="UTF-8"?><svg id="Layer_2" xmlns="http://www.w3.org/2000/svg" viewBox="0 0 193.48 172.5"><defs><style>.cls-1{fill:#695342;}.cls-2{fill:#f06669;}.cls-3{fill:#ffd77f;}.cls-4{fill:#ffd05d;}.cls-5{fill:#fdc453;}.cls-6{fill:#7cc4e8;}.cls-7{fill:#303030;}.cls-8{fill:#62bbe8;}</style></defs><g id="Object"><g><g><g><circle class="cls-4" cx="108.19" cy="85.26" r="85.24" transform="translate(-28.6 101.47) rotate(-45)"/><path class="cls-5" d="m178.62,37.09c2.33,15.56.38,31.95-6.52,47.38-19.24,42.96-69.66,62.2-112.63,42.96-14.92-6.68-26.98-17.13-35.56-29.71,4.16,27.78,21.95,52.91,49.48,65.24,42.96,19.24,93.39,0,112.63-42.96,12.56-28.04,8.72-59.26-7.4-82.91Z"/><path class="cls-3" d="m37.29,63.36C55.15,23.47,101.97,5.62,141.86,23.48c23.32,10.44,39.1,30.78,44.63,53.84-2.78-27.24-19.63-52.28-46.41-64.27-39.89-17.86-86.71,0-104.57,39.88-7.42,16.57-8.67,34.34-4.74,50.73-1.36-13.33.65-27.19,6.52-40.3Z"/></g><g><path class="cls-7" d="m65.66,67.72c-.98-.44-1.76-1.31-2.03-2.44-.48-1.94.71-3.89,2.65-4.37l15.13-3.72-8.54-12.01c-1.16-1.63-.78-3.88.85-5.04,1.63-1.16,3.88-.78,5.04.85l11.62,16.35c.69.98.86,2.23.44,3.35-.42,1.12-1.36,1.96-2.52,2.25l-20.3,4.99c-.81.2-1.63.11-2.34-.21Z"/><path class="cls-7" d="m149.59,105.3c-.71-.32-1.32-.86-1.71-1.6l-9.8-18.46c-.56-1.06-.56-2.32,0-3.38.56-1.06,1.61-1.77,2.8-1.9l19.94-2.22c1.98-.22,3.77,1.21,3.99,3.19.22,1.98-1.21,3.77-3.19,3.99l-14.65,1.63,7.3,13.77c.94,1.76.26,3.95-1.5,4.89-1.02.54-2.19.54-3.17.11Z"/></g></g><g><g><path class="cls-6" d="m158.36,105.01c-21.22,31.96-16.26,48-16.26,48,1.64,12.29,12.92,20.93,25.21,19.29,12.29-1.64,20.93-12.92,19.29-25.21,0,0,.59-16.78-28.24-42.08Z"/><path class="cls-8" d="m149.79,167.13c4.68,3.98,10.96,6.04,17.52,5.17,12.29-1.64,20.93-12.92,19.29-25.21,0,0,.24-7.06-7.44-18.91-.59,29.43-18.01,37.1-29.37,38.95Z"/></g><g><path class="cls-6" d="m59.43,60.11c-38.17-3.77-50.02,8.14-50.02,8.14-10.09,7.2-12.43,21.22-5.22,31.31,7.2,10.09,21.22,12.43,31.31,5.22,0,0,15.1-7.34,23.93-44.67Z"/><path class="cls-8" d="m.54,81.66c-1.33,6-.2,12.51,3.65,17.9,7.2,10.09,21.22,12.43,31.31,5.22,0,0,6.35-3.1,13.22-15.43-26.27,13.27-41.21,1.48-48.17-7.69Z"/></g></g><g><path class="cls-1" d="m59.01,75.61c-7.5,23.51,3.7,49.41,26.75,59.73,23.06,10.32,49.83,1.43,62.38-19.82l-89.13-39.91Z"/><path class="cls-2" d="m60.46,109.31c4.63,11.19,13.37,20.69,25.3,26.03,11.41,5.11,23.73,5.5,34.78,2.03l.02-1.15c-23.39-27.99-59.61-26.93-60.1-26.92Z"/></g></g></g></svg>